<?xml version='1.0' encoding='UTF-8'?>
<svg x="0px" y="0px" viewBox="0 0 32 32" version="1.1" xmlns="http://www.w3.org/2000/svg" xmlns:xlink="http://www.w3.org/1999/xlink" xml:space="preserve" id="Layer_1" style="enable-background:new 0 0 32 32">
  <style type="text/css">
	.Blue{fill:#1177D7;}
	.Black{fill:#727272;}
	.Green{fill:#039C23;}
</style>
  <polygon points="30,24 18,24 24,28 " class="Blue" />
  <path d="M18,26v5c0,0.6,0.4,1,1,1h10c0.6,0,1-0.4,1-1v-5l-6,4L18,26z" class="Blue" />
  <path d="M6,18H4v11c0,0.6,0.4,1,1,1h11v-2H6V18z" class="Black" />
  <path d="M6,10V4h18v6h2V3c0-0.6-0.4-1-1-1H5C4.4,2,4,2.4,4,3v7H6z" class="Black" />
  <rect x="24" y="18" width="2" height="4" class="Black" />
  <path d="M27,8H3C2.4,8,2,8.4,2,9v10c0,0.6,0.4,1,1,1h24c0.6,0,1-0.4,1-1V9C28,8.4,27.6,8,27,8z M9.6,18l-1.2-2.6  c0-0.1-0.1-0.3-0.1-0.5l0,0c0,0.1-0.1,0.3-0.2,0.6L6.8,18H4.9l2.3-4l-2.1-4h2l1,2.4c0.1,0.2,0.2,0.4,0.2,0.7l0,0  c0-0.2,0.1-0.4,0.2-0.7L9.6,10h1.8l-2.2,4l2.2,4H9.6z M17.8,18h-4.3v-8h1.6v6.5h2.7V18z M20,17.9c-0.4-0.1-0.7-0.2-0.9-0.3v-1.7  c0.3,0.3,0.6,0.5,1,0.6c2,0.5,2.2-0.4,2.2-0.6c0.1-0.2-0.2-0.6-0.3-0.7c-0.9-0.8-2.9-0.7-2.9-2.8c0-0.9,0.6-2.4,3.8-2.1  c0.3,0,0.6,0.1,0.8,0.2v1.6c-0.9-1.1-2.9-0.5-2.9,0.3c0,1.1,2.1,1.4,2.8,2.1c0.2,0.2,0.5,0.7,0.5,1.4C24.1,16.9,22.9,18.4,20,17.9z" class="Green" />
</svg>